<svg width="644" height="643" viewBox="0 0 644 643" fill="none" xmlns="http://www.w3.org/2000/svg">
<path d="M282.386 126.695L283.157 63.3463L283.929 0H321.143H358.358V63.6445C358.358 104.833 359.342 126.305 361.145 124.502C362.676 122.971 374.146 97.2814 386.634 67.4144C399.119 37.5474 410.71 12.6515 412.387 12.0925C416.329 10.7795 478.767 37.0886 478.767 40.0644C478.767 41.3057 468.429 67.1821 455.791 97.5709C443.154 127.957 433.218 153.223 433.711 153.713C434.201 154.206 453.879 135.302 477.433 111.708C500.99 88.1103 521.397 68.8048 522.781 68.8048C526.371 68.8048 573.373 115.391 573.373 118.952C573.373 120.58 553.423 141.83 529.04 166.175C504.654 190.523 485.137 210.872 485.664 211.4C486.192 211.927 511.919 201.991 542.835 189.319C573.754 176.648 600.691 166.287 602.695 166.295C607.168 166.318 634.111 229.882 630.991 233.047C628.89 235.18 565.042 262.553 530.37 276.185L514.602 282.386L579.107 283.82L643.611 285.253V321.089V356.925L579.107 358.358L514.602 359.792L527.503 365.683C534.599 368.923 560.699 379.888 585.503 390.051C615.806 402.468 630.619 409.965 630.656 412.909C630.685 415.317 624.988 430.798 617.996 447.311C608.226 470.381 604.077 477.247 600.078 476.963C597.217 476.76 571.707 466.76 543.391 454.745C515.075 442.727 490.581 432.897 488.955 432.897C487.333 432.897 505.841 452.764 530.086 477.049L574.17 521.199L568.239 529.37C560.759 539.667 525.929 573.373 522.764 573.373C521.466 573.373 499.993 553.056 475.051 528.22C423.009 476.404 424.792 472.978 459.831 557.448C470.261 582.59 477.82 603.98 476.631 604.98C473.064 607.973 415.882 630.71 411.914 630.71C409.839 630.71 398.351 606.46 385.453 574.841C372.916 544.114 361.689 518.957 360.508 518.937C359.327 518.92 358.358 546.64 358.358 580.54V642.178H321.089H283.82L283.777 578.39C283.748 536.955 282.776 516.11 281.007 518.903C279.508 521.268 268.287 547.394 256.068 576.957C243.853 606.523 232.388 630.71 230.593 630.71C227.661 630.71 166.192 605.78 164.191 603.776C163.735 603.323 174.148 577.266 187.324 545.874C200.503 514.485 210.789 488.216 210.181 487.505C209.574 486.791 189.124 506.131 164.736 530.479L120.394 574.752L93.9099 548.268L67.4229 521.784L113.235 475.905C138.429 450.674 158.262 430.03 157.308 430.03C156.356 430.03 130.672 440.402 100.237 453.082C69.8024 465.76 43.0718 475.759 40.8356 475.301C37.1087 474.535 11.4675 418.591 11.4675 411.226C11.4675 409.466 31.1399 399.936 55.1872 390.049C79.2316 380.161 105.357 369.095 113.241 365.454L127.576 358.837L63.7878 358.596L0 358.358V321.143V283.929L65.2212 283.157L130.442 282.386L73.1051 258.485C41.5695 245.338 14.7328 233.595 13.4685 232.388C11.0489 230.083 32.8084 173.141 38.4504 167.018C41.0277 164.22 52.5554 167.998 92.3102 184.669C120.13 196.337 145.895 206.776 149.567 207.868C153.592 209.061 138.616 192.091 111.834 165.12L67.4258 120.394L93.9099 93.91L120.394 67.423L166.272 113.235C191.504 138.429 212.148 157.898 212.148 156.496C212.148 155.095 201.781 128.748 189.107 97.9494C176.435 67.1506 166.596 40.5748 167.244 38.8948C168.824 34.7866 228.776 10.6189 233.102 12.3476C234.98 13.0959 246.837 39.1298 259.451 70.2009L282.386 126.695Z" fill="url(#paint0_radial_144_117)"/>
<defs>
<radialGradient id="paint0_radial_144_117" cx="0" cy="0" r="1" gradientUnits="userSpaceOnUse" gradientTransform="translate(321.806 321.089) rotate(90) scale(321.089 321.806)">
<stop stop-color="#AA00FF" stop-opacity="0.28"/>
<stop offset="1" stop-color="#AA00FF" stop-opacity="0"/>
</radialGradient>
</defs>
</svg>
