<svg width="730" height="350" viewBox="0 0 730 350" fill="none" xmlns="http://www.w3.org/2000/svg">
<path fill-rule="evenodd" clip-rule="evenodd" d="M54.3141 102.826C34.9365 112.882 24.5636 122.84 27.0609 128.988C28.5845 132.743 27.4138 134.403 22.9013 134.877C8.82549 136.354 0.493505 176.308 6.6071 213.022C11.9087 244.887 19.8489 262.273 38.6203 283.156L50.7856 296.686L41.5442 302.672C36.4619 305.963 27.0181 310.538 20.5584 312.838C-1.57961 320.722 -7.18222 340.035 10.3796 347.937C22.5459 353.412 53.1056 346.064 79.7619 331.253L99.6547 320.202L123.663 322.83C152.629 326.006 194.411 319.643 223.968 307.554C246.617 298.292 288.138 273.895 302.253 261.551L312.62 252.488L328.662 254.426C356.409 257.782 393.321 253.513 421.779 243.658C454.211 232.425 474.059 223.171 500.628 206.894L522.427 193.541L542.163 194.445C575.311 195.964 594.278 194.285 624.504 187.157C668.315 176.826 722.399 151.694 728.133 139.002C732.791 128.684 727.264 115.446 716.44 111.008C701.674 104.952 691.461 106.497 663.147 119.072C636.428 130.941 584.617 144.606 579.734 141.074C578.251 140.001 580.096 133.889 583.834 127.49C611.96 79.3339 601 29.2553 558.31 10.8852C551.097 7.78275 541.876 5.98281 537.825 6.88885C532.46 8.08759 531.612 7.66194 534.714 5.32664C540.943 0.636832 507.105 -2.00316 490.302 1.86156C471.229 6.24561 450.288 15.9626 454.045 18.6805C455.965 20.0684 455.293 20.56 452.254 19.9869C444.082 18.4497 419.214 50.0402 415.607 66.5337C409.059 96.5005 422.176 128.987 451.327 154.988C457.484 160.479 462.657 165.56 462.821 166.278C463.541 169.424 429.757 188.396 410.228 195.813C391.393 202.963 363.094 208.522 362.338 205.218C362.19 204.571 366.984 195.917 372.994 185.984C390.677 156.756 395.754 132.808 389.998 105.779C385.519 84.7418 383.801 81.6235 369.693 68.8337C346.837 48.1186 316.723 41.5752 281.434 49.6524C239.37 59.2802 211.034 92.1487 209.851 132.682C209.061 159.903 226.633 198.11 248.928 217.644L258.499 226.033L251.096 232.502C231.239 249.861 201.499 265.999 177.259 272.575C163.875 276.204 152.783 278.536 152.605 277.757C152.427 276.979 158.332 267.413 165.732 256.496C197.9 209.038 199.539 156.688 169.931 122.457C156.369 106.781 138.769 98.0673 114.459 94.9942C88.9558 91.7712 71.1457 94.0894 54.3141 102.826ZM72.9974 151.227C59.2824 175.014 69.5044 235.891 89.6469 250.388C96.114 255.042 104.335 244.648 113.232 220.562C125.669 186.904 118.669 156.604 96.3386 147.446C82.0761 141.597 78.1845 142.23 72.9974 151.227ZM328.92 90.8759C329.766 93.7812 330.753 94.1858 331.435 91.9096C332.053 89.8475 331.425 87.6956 330.043 87.1288C328.661 86.562 328.156 88.247 328.92 90.8759ZM281.49 106.166C272.252 122.249 276.547 147.758 292.712 172.76C298.267 181.357 301.925 179.868 309.668 165.87C318.576 149.76 322.445 124.111 317.505 113.915C308.847 96.0475 289.676 91.9234 281.49 106.166ZM487.803 59.9684C482.301 67.7555 482.194 78.0481 487.462 92.9385C490.09 100.368 508.653 120.009 512.262 119.183C513.678 118.859 517.855 112.056 521.541 104.065C532.141 81.0895 521.579 52.038 502.345 51.2825C493.868 50.9485 494.393 50.6369 487.803 59.9684ZM577.076 39.1762C577.553 41.2615 579.506 42.61 581.417 42.1727C583.324 41.7362 583.568 39.8848 581.958 38.0587C580.344 36.2335 578.391 34.885 577.617 35.0622C576.842 35.2394 576.598 37.0908 577.076 39.1762ZM458.885 99.6363C459.221 101.107 460.949 101.241 462.724 99.9306C464.499 98.62 465.837 97.0476 465.696 96.4334C465.555 95.8191 463.828 95.6879 461.856 96.1391C459.885 96.5903 458.548 98.1652 458.885 99.6363Z" fill="url(#paint0_linear_144_18)"/>
<defs>
<linearGradient id="paint0_linear_144_18" x1="744.487" y1="66.5822" x2="-32.7819" y2="420.076" gradientUnits="userSpaceOnUse">
<stop offset="0.120192" stop-color="#AA00FF" stop-opacity="0"/>
<stop offset="0.493214" stop-color="#AA00FF" stop-opacity="0.28"/>
<stop offset="0.836538" stop-color="#AA00FF" stop-opacity="0"/>
</linearGradient>
</defs>
</svg>
