<svg width="280" height="242" viewBox="0 0 280 242" fill="none" xmlns="http://www.w3.org/2000/svg">
<path fill-rule="evenodd" clip-rule="evenodd" d="M153.558 0.59549C158.454 1.84649 170.16 7.75448 178.318 13.0935C195.49 24.3305 210.129 46.3605 213.264 65.6835C214.764 74.9255 214.528 91.0705 212.786 98.4615C210.711 107.261 203.419 120.881 196.849 128.224C191.138 134.608 173.276 148.689 160.318 157.023C156.193 159.676 151.285 163.186 149.411 164.823C147.538 166.46 142.965 169.749 139.249 172.13C135.533 174.512 132.247 177.277 131.946 178.274C131.646 179.27 130.501 185.261 129.403 191.586C128.305 197.911 126.083 207.586 124.466 213.086C122.775 218.836 121.941 223.239 122.503 223.446C124.433 224.158 134.475 216.174 143.42 206.818C159.162 190.351 168.676 177.373 180.242 156.586C184.924 148.171 192.483 138.586 194.436 138.586C194.822 138.586 199.279 141.697 204.341 145.497C213.939 152.706 226.906 158.603 237.681 160.662C248.266 162.686 263.876 164.586 269.91 164.586C280.562 164.586 280.755 164.94 276.849 177.284C274.4 185.026 272.334 188.818 262.936 202.815C256.577 212.287 254.938 214.044 248.122 218.698C234.929 227.706 220.513 233.013 195.043 238.237C182.716 240.765 179.714 240.977 150.831 241.357C123.631 241.715 118.069 241.515 105.331 239.729C97.3487 238.61 85.2907 236.977 78.5357 236.099C63.4977 234.144 55.5177 231.769 43.8177 225.769C32.4527 219.94 19.8016 207.855 13.2686 196.586C8.27466 187.97 0.296631 168.948 0.0116272 164.972C-0.245361 161.404 3.88269 160.089 8.83768 162.159C10.8307 162.991 15.7037 163.602 20.5357 163.622C25.0907 163.641 31.5177 164.309 34.8177 165.106C38.1177 165.903 42.2357 166.562 43.9677 166.57C46.9417 166.585 47.1877 166.881 48.3537 171.836C50.3517 180.324 56.0297 190.292 63.2107 197.915C69.8527 204.967 69.4986 205.211 75.6776 189.324C78.7236 181.493 82.5737 171.327 84.2346 166.733L87.2536 158.38L85.3977 154.733C80.2587 144.633 71.3707 114.641 68.6187 98.1115C67.5767 91.8535 66.9266 82.0745 66.8886 72.0865C66.8356 58.2515 67.1386 55.0105 69.1256 48.1315C72.6876 35.8045 77.7206 27.1415 86.2976 18.5765C99.4196 5.47248 111.643 0.910484 135.779 0.107484C143.501 -0.149516 151.501 0.0704905 153.558 0.59549ZM128.318 57.9655C130.243 58.7125 134.19 60.7275 137.088 62.4415C143.586 66.2845 144.832 66.5985 154.818 66.9065C161.483 67.1115 163.703 67.6375 168.122 70.0575C174.144 73.3565 179.182 78.5165 182.507 84.7915C185.921 91.2335 185.773 103.046 182.182 110.706C177.161 121.417 168.552 128.585 155.291 133.095C146.994 135.917 140.814 136.186 131.187 134.146C108.207 129.275 95.9616 112.098 95.8576 84.5865C95.8216 75.0455 96.0756 73.5615 98.6416 68.3355C102.477 60.5255 107.688 57.4055 117.674 56.9395C122.089 56.7335 126.155 57.1255 128.318 57.9655ZM201.318 148.219C215.234 159.595 238.85 167.154 263.412 168.092C268.585 168.29 273.213 168.482 273.696 168.52C275.076 168.624 273.455 176.583 270.932 182.086C267.562 189.439 254.924 207.805 250.46 211.839C239.898 221.381 223.132 228.258 196.818 233.841L181.818 237.024L147.318 237.055C128.343 237.072 111.018 236.698 108.818 236.225L104.818 235.363L112.175 232.954C126.658 228.211 136.683 220.666 152.853 202.335C165.437 188.069 173.36 176.975 182.412 160.942C189.47 148.442 192.919 143.558 194.619 143.654C195.278 143.692 198.293 145.746 201.318 148.219ZM92.8786 168.737C97.0396 176.994 99.2737 179.662 103.719 181.681C109.037 184.095 115.018 184.072 121.498 181.61C124.358 180.523 126.822 179.757 126.973 179.908C127.556 180.491 123.32 202.13 121.292 208.926C116.782 224.044 116.77 224.07 114.387 224.419C111.207 224.885 104.997 217.954 99.1117 207.368C94.2517 198.628 92.0717 196.002 90.4857 196.982C89.9807 197.294 87.6936 200.703 85.4046 204.557L81.2417 211.564L77.3957 209.02L73.5506 206.475L78.0107 195.28C80.4637 189.123 84.0597 179.586 86.0027 174.086C87.9447 168.586 89.6807 163.929 89.8587 163.737C90.0377 163.544 91.3966 165.794 92.8786 168.737ZM6.94467 165.613C7.50867 166.177 11.9867 166.779 16.8947 166.951C21.8027 167.122 29.9167 168.092 34.9267 169.109L44.0346 170.957L45.2357 175.645C47.0977 182.908 54.8287 195.158 61.9137 202.07C67.4147 207.438 68.1156 208.508 66.8286 209.577C65.6186 210.581 64.8907 210.523 63.0727 209.278C59.5407 206.858 44.6647 192.3 43.5587 190.182C41.8177 186.844 39.8246 189.106 35.8546 198.929C32.6337 206.901 32.2056 208.746 33.2766 210.037C35.2616 212.428 36.6997 211.947 42.1067 207.086C44.8597 204.611 47.5316 202.586 48.0446 202.586C48.5587 202.586 52.3177 205.501 56.3977 209.063C60.4787 212.625 64.7006 215.55 65.7796 215.563C66.8596 215.576 68.7166 214.365 69.9066 212.872L72.0706 210.159L75.5857 212.568L79.1017 214.977L77.0617 219.175C73.4107 226.69 76.3847 228.307 84.1657 223.036L87.5136 220.77L92.6657 223.159C95.4987 224.473 100.293 226.079 103.318 226.727C106.343 227.374 109.209 228.245 109.688 228.664C111.161 229.954 103.318 231.618 92.7437 232.258C62.2417 234.105 34.8927 221.522 19.2086 198.426C12.3746 188.362 2.15463 164.586 4.66263 164.586C5.35263 164.586 6.37967 165.048 6.94467 165.613ZM100.515 217.877C101.998 220.192 102.819 222.225 102.338 222.395C101.857 222.565 99.1176 221.695 96.2506 220.462L91.0387 218.22L93.9287 215.908C95.5177 214.636 97.0427 213.612 97.3177 213.632C97.5927 213.652 99.0317 215.563 100.515 217.877Z" fill="black"/>
</svg>
